PathFileType	4	(X/Y/Z)	C:/Users/opensim2020/Desktop/walking_exp_matlab/subject01_walking08_straight_02.trc	
DataRate	CameraRate	NumFrames	NumMarkers	Units	OrigDataRate	OrigDataStartFrame	OrigNumFrames	
100.00	100.00	5	43	mm	100.00	1845	311	
Frame#	Time	LFHD			RFHD			LBHD			RBHD			C7			T10			CLAV			STRN			RBAK			LSHO			LUPA			LELB			LFRM			LWRA			LWRB			LFIN			RSHO			RUPA			RELB			RFRM			RWRA			RWRB			RFIN			LASI			RASI			LPSI			RPSI			LTHI			LKNE			LTIB			LANK			LHEE			LTOE			RTHI			RKNE			RTIB			RANK			RHEE			RTOE			*39			*40			*41			*42			
		X1	Y1	Z1	X2	Y2	Z2	X3	Y3	Z3	X4	Y4	Z4	X5	Y5	Z5	X6	Y6	Z6	X7	Y7	Z7	X8	Y8	Z8	X9	Y9	Z9	X10	Y10	Z10	X11	Y11	Z11	X12	Y12	Z12	X13	Y13	Z13	X14	Y14	Z14	X15	Y15	Z15	X16	Y16	Z16	X17	Y17	Z17	X18	Y18	Z18	X19	Y19	Z19	X20	Y20	Z20	X21	Y21	Z21	X22	Y22	Z22	X23	Y23	Z23	X24	Y24	Z24	X25	Y25	Z25	X26	Y26	Z26	X27	Y27	Z27	X28	Y28	Z28	X29	Y29	Z29	X30	Y30	Z30	X31	Y31	Z31	X32	Y32	Z32	X33	Y33	Z33	X34	Y34	Z34	X35	Y35	Z35	X36	Y36	Z36	X37	Y37	Z37	X38	Y38	Z38	X39	Y39	Z39	X40	Y40	Z40	X41	Y41	Z41	X42	Y42	Z42	X43	Y43	Z43	

39	0.380	1497.16821	1121.37415	1686.08667	1386.54382	1100.09644	1700.70251	1476.06958	1223.15417	1616.78259	1358.85071	1204.73877	1630.65894	1431.19275	1228.56482	1440.67517	1416.01807	1256.78687	1148.50134	1431.37830	1084.07495	1378.10510	1432.93115	1034.66125	1223.21228	1349.18982	1276.09534	1247.37061	1592.20618	1146.00024	1399.84082	1675.62109	1157.60876	1213.70276	1679.17151	1148.99585	1062.89795	1703.12817	1089.96460	965.09778	1680.89844	991.25165	868.00317	1708.38013	1042.91528	852.43518	1717.07336	979.96289	796.21008	1279.07141	1144.98718	1406.50574	1175.41895	1204.05212	1207.96228	1172.68579	1206.01404	1083.13623	1139.41748	1182.29102	965.78064	1155.27600	1103.96973	847.23401	1116.73718	1149.52454	849.56378	1118.35315	1113.23193	770.98779	1522.63025	1088.40906	941.86359	1306.54370	1083.23279	948.04108	1464.89575	1272.80371	954.59229	1319.35938	1267.02234	956.79779	1566.54468	1112.72400	608.08618	1543.84619	1117.01685	474.38504	1546.78296	1170.57849	290.44003	1484.79590	1197.53467	74.78403	1429.37646	1240.49585	45.79641	1490.55359	1049.04236	38.99091	1239.35034	1062.12219	621.28601	1258.77380	1031.37671	465.46503	1256.56177	1154.15186	337.94717	1302.52234	1270.18848	167.59082	1358.63904	1324.87842	150.98502	1288.61731	1173.81360	65.63929	1408.36523	1121.49463	1729.60657	-3101.91138	1973.11755	1023.50647	-3140.72900	2012.57544	1022.02252			 
40	0.390	1498.02307	1114.76050	1686.17346	1387.41919	1093.57251	1700.61279	1477.15710	1216.73145	1617.09900	1359.85083	1198.41187	1630.86169	1432.38147	1222.41077	1440.84534	1417.15112	1251.01807	1148.72058	1432.26929	1078.05042	1378.08801	1433.95508	1028.62622	1223.25842	1350.48218	1270.17615	1247.52563	1593.26318	1139.76611	1399.94250	1676.83667	1150.94458	1213.93591	1680.40051	1141.15454	1063.06311	1704.25830	1080.48792	965.99237	1682.37061	980.25079	870.66333	1709.56152	1031.78223	854.18604	1718.62061	968.10889	799.16235	1279.97571	1138.97241	1406.45496	1176.50635	1198.81458	1208.19775	1173.89795	1201.19287	1083.38916	1140.68018	1177.98145	965.89191	1156.55127	1100.09656	847.19189	1118.12146	1145.82654	849.59094	1119.76758	1109.80042	770.65350	1523.57043	1083.07910	941.79834	1307.47241	1077.35583	948.42352	1465.40625	1267.32324	954.53418	1320.05884	1261.63416	956.85626	1567.05249	1109.96594	607.76227	1544.39001	1115.16992	474.03342	1547.18896	1169.40320	290.47079	1484.85620	1197.50940	74.90515	1429.30090	1240.49438	45.85347	1490.68518	1049.00427	38.94841	1240.16809	1053.21448	622.42230	1260.16748	1020.88385	467.07050	1257.17566	1139.34851	335.29080	1302.89148	1249.55225	161.03542	1358.83130	1303.72058	142.04486	1288.43823	1149.23291	63.49829	1409.28198	1114.89111	1729.70886	-3101.99414	1973.13062	1023.39783	-3140.69409	2012.53015	1022.00726			 
41	0.400	1498.85999	1108.12598	1686.17261	1388.20935	1087.06506	1700.49731	1478.18408	1210.28833	1617.36084	1360.84924	1192.08960	1630.99084	1433.38782	1216.22693	1440.91455	1418.19385	1245.25232	1148.89392	1433.12988	1071.93933	1377.99768	1434.80383	1022.67523	1223.15588	1351.73730	1264.24219	1247.61707	1594.20886	1133.47693	1399.98853	1677.83191	1144.18958	1214.05908	1681.54285	1133.33728	1063.18250	1705.64490	1071.40015	967.04340	1683.67798	969.34576	873.33685	1710.37634	1020.68799	855.82111	1719.79529	956.14246	801.92596	1281.00989	1132.99963	1406.45435	1177.50769	1193.34143	1208.32764	1175.07153	1196.30017	1083.55920	1141.94531	1173.51563	965.90485	1157.94653	1096.13599	847.03088	1119.42761	1141.84314	849.52325	1121.45007	1106.09802	770.51300	1524.40149	1077.74475	941.59088	1308.52698	1071.42224	948.92065	1465.89563	1261.84448	954.45496	1320.53308	1255.69104	956.78394	1567.36096	1107.03345	607.29688	1544.72864	1113.20398	473.57367	1547.29773	1168.23560	290.31598	1484.67737	1197.25415	74.72525	1429.26184	1240.47961	46.04681	1490.67175	1048.86023	38.74329	1240.87048	1044.71777	623.61786	1261.00342	1010.62482	468.24487	1257.83435	1124.46887	332.41187	1303.09033	1228.58679	154.29895	1358.80078	1282.26038	133.05304	1288.55359	1124.19360	61.50735	1410.11646	1108.24951	1729.69482	-3101.87915	1973.18384	1023.33301	-3140.72827	2012.58240	1021.95959			 
42	0.410	1499.67334	1101.52039	1686.13550	1388.92346	1080.65149	1700.29700	1479.07788	1203.78247	1617.49109	1361.77991	1185.74170	1631.09570	1434.42065	1210.00256	1440.95020	1419.21667	1239.41565	1148.98938	1434.09229	1065.81458	1377.95056	1435.70386	1016.73193	1222.95007	1352.91541	1258.32263	1247.59265	1595.09595	1127.19580	1400.01855	1678.83533	1137.37183	1214.21021	1682.65771	1125.51013	1063.21838	1706.62231	1062.16687	967.81647	1684.82605	958.54639	875.97650	1711.33911	1009.66534	857.58295	1720.79785	944.17340	804.66187	1281.87061	1127.00928	1406.43579	1178.48474	1187.79980	1208.42871	1176.11853	1191.35681	1083.68896	1143.14636	1168.98792	965.94293	1159.27747	1092.04138	846.67596	1120.71667	1137.67395	849.34222	1122.83606	1102.25818	770.26794	1525.26965	1072.40503	941.38263	1309.54102	1065.47559	949.11938	1466.28442	1256.32373	954.26953	1320.72473	1249.39563	956.71307	1567.77222	1103.97546	606.95142	1545.16260	1111.19397	473.19553	1547.26978	1167.17053	290.05493	1484.68787	1197.13196	74.97858	1429.11047	1240.37598	46.22512	1490.64929	1048.63293	38.76973	1241.70593	1036.78650	624.51935	1262.22314	1000.83459	469.68018	1258.10413	1109.68726	329.51065	1303.15173	1207.19543	147.65344	1358.62781	1260.32166	124.02666	1288.42139	1098.06873	59.69935	1410.86877	1101.65479	1729.60852	-3101.94946	1973.23035	1023.43402	-3140.69165	2012.56921	1022.08185			 
43	0.420	1500.35498	1094.86719	1685.99731	1389.67981	1074.08655	1700.21350	1479.97559	1197.33057	1617.57312	1362.60217	1179.36829	1631.08594	1435.35156	1203.83154	1440.94556	1420.07043	1233.63953	1149.00879	1434.86279	1059.71777	1377.69202	1436.56323	1010.67194	1222.71570	1354.01050	1252.35156	1247.54810	1595.95056	1120.88318	1399.99658	1679.86438	1130.48889	1214.34998	1683.73718	1117.66858	1063.27222	1707.76147	1052.94153	968.79150	1685.88599	947.81317	878.64905	1712.22375	998.79529	859.33398	1721.80920	932.34814	807.48071	1282.74622	1121.02490	1406.33301	1179.49341	1182.24182	1208.43018	1177.11816	1186.22339	1083.66357	1144.36084	1164.32397	965.94568	1160.43579	1087.89368	846.37134	1121.87683	1133.40625	849.13593	1124.04956	1098.45642	769.87152	1526.07996	1067.04358	941.08960	1310.48877	1059.43774	949.19849	1466.55322	1250.84546	953.97797	1321.02209	1243.37842	956.55670	1568.06519	1100.71826	606.51721	1545.43542	1109.15857	472.80356	1547.27832	1166.11597	289.99225	1484.46643	1196.86206	74.97819	1429.02881	1240.41077	46.57883	1490.77661	1048.68689	38.60062	1242.62769	1029.37537	625.11591	1263.22192	991.33514	470.27524	1258.23743	1094.82788	326.48303	1303.00696	1185.47058	140.92569	1358.54797	1238.72400	115.11054	1288.90784	1072.36194	58.46016	1411.58765	1095.03223	1729.44043	-3101.89819	1973.13367	1023.36792	-3140.77808	2012.51331	1021.91614			 
